PathFileType	4	(X/Y/Z)	C:\Users\Biomechanik\SynologyDrive\AlexP\Athlete_03\Athlete_3_25_03_31\Squat_bar_01\marker_experimental.trc
DataRate	CameraRate	NumFrames	NumMarkers	Units	OrigDataRate	OrigDataStartFrame	OrigNumFrames
200.000000	200.000000	4	55	mm	200.000000	361	482
Frame#	Time	BL			BR			GLAB			RFHD			LFHD			C7			T6			SPINMOL			SPINM2			SPINM3			T12			BELTOL			BELT2			BELT3			SACROL			SACR2			SACR3			LTHOL			LTH2			LTH3			LSHAOL			LSHA2			LSHA3			LHEE			LTOE			LM5			RTHOL			RTH2			RTH3			RSHAOL			RSHA2			RSHA3			RHEE			RTOE			RM5			STRN			XIPH			LACR			LUAOL			LUA2			LUA3			LLAOL			LLA2			LLA3			LWRR			LWRU			RACR			RUAOL			RUA2			RUA3			RLAOL			RLA2			RLA3			RWRR			RWRU			
		X1	Y1	Z1	X2	Y2	Z2	X3	Y3	Z3	X4	Y4	Z4	X5	Y5	Z5	X6	Y6	Z6	X7	Y7	Z7	X8	Y8	Z8	X9	Y9	Z9	X10	Y10	Z10	X11	Y11	Z11	X12	Y12	Z12	X13	Y13	Z13	X14	Y14	Z14	X15	Y15	Z15	X16	Y16	Z16	X17	Y17	Z17	X18	Y18	Z18	X19	Y19	Z19	X20	Y20	Z20	X21	Y21	Z21	X22	Y22	Z22	X23	Y23	Z23	X24	Y24	Z24	X25	Y25	Z25	X26	Y26	Z26	X27	Y27	Z27	X28	Y28	Z28	X29	Y29	Z29	X30	Y30	Z30	X31	Y31	Z31	X32	Y32	Z32	X33	Y33	Z33	X34	Y34	Z34	X35	Y35	Z35	X36	Y36	Z36	X37	Y37	Z37	X38	Y38	Z38	X39	Y39	Z39	X40	Y40	Z40	X41	Y41	Z41	X42	Y42	Z42	X43	Y43	Z43	X44	Y44	Z44	X45	Y45	Z45	X46	Y46	Z46	X47	Y47	Z47	X48	Y48	Z48	X49	Y49	Z49	X50	Y50	Z50	X51	Y51	Z51	X52	Y52	Z52	X53	Y53	Z53	X54	Y54	Z54	X55	Y55	Z55	

362	1.805	253.3417358398438	929.3071899414064	-2238.60693359375	249.1544342041016	981.0882568359375	-218.2361450195312	538.828857421875	1123.167724609375	-1185.703735351562	484.9182434082031	1146.592651367188	-1124.515380859375	497.637451171875	1145.18994140625	-1260.443359375	302.94677734375	1012.2197265625	-1197.700317382812	177.5333862304688	900.2346801757814	-1208.492919921875	157.1089019775391	878.9105834960939	-1229.771484375	146.1455078125	873.7479248046876	-1180.926025390625	116.9587478637695	827.4091186523439	-1218.298461914062	88.20752716064453	780.4537963867189	-1218.409790039062	53.1280403137207	775.4327392578126	-1234.088745117188	49.69047164916992	772.9422607421876	-1183.664916992188	11.00819396972656	728.4232788085939	-1214.572265625	-54.76836395263672	631.9433593750001	-1239.62548828125	-55.6580924987793	629.8757934570314	-1188.124877929688	-72.96729278564453	572.4382934570314	-1216.114379882812	130.5920715332031	456.7600097656251	-1502.886840820312	165.3946228027344	386.8424377441407	-1519.312622070312	180.0841827392578	433.5820922851564	-1531.473876953125	229.420654296875	300.3334960937501	-1607.580200195312	170.8291320800781	257.2772216796876	-1574.613037109375	214.9598083496094	241.7500610351563	-1593.621948242188	112.8235702514648	70.7241744995118	-1464.661743164062	314.0020751953125	49.73345565795908	-1542.719604492188	235.1714019775391	25.70662307739268	-1622.659057617188	98.63799285888672	449.6230468750001	-914.484619140625	151.3500671386719	488.7126770019532	-868.5550537109375	149.6126403808594	440.1998596191407	-879.3555908203125	191.8037109375	316.0505065917969	-806.94091796875	198.0965728759766	237.3928222656251	-805.7757568359375	164.9827575683594	265.0962524414063	-830.8103637695312	92.38314819335938	65.50865936279303	-967.0653076171875	279.2938842773438	47.62643432617192	-866.301025390625	188.8368225097656	37.10892486572271	-797.2141723632812	411.8402099609375	845.7959594726564	-1202.563598632812	363.3684692382812	706.6820068359376	-1200.072265625	344.9031982421875	958.9514770507814	-1370.209228515625	219.0741882324219	858.4994506835939	-1463.104736328125	164.3652954101562	823.1718750000001	-1453.201416015625	193.9448547363281	804.6074218750001	-1490.162475585938	159.1578674316406	740.7015380859376	-1559.32470703125	230.0816650390625	726.6578979492189	-1592.783203125	206.9613342285156	770.7161254882814	-1583.980346679688	273.6564636230469	842.9557495117189	-1622.576538085938	286.6250915527344	869.4908447265626	-1549.340942382812	350.9933471679688	952.7567138671876	-1038.088256835938	223.7388000488281	859.3900146484376	-952.5350341796875	190.8633880615234	809.5789794921875	-923.6992797851562	170.1468505859375	825.0850219726564	-969.371826171875	174.8682250976562	743.0216674804688	-841.019775390625	188.1171112060547	821.1996459960938	-830.4724731445312	218.6506042480469	781.7647705078125	-819.416259765625	263.5350341796875	862.6983032226562	-800.115234375	293.0594482421875	888.5233154296875	-870.0037841796875	
363	1.81	253.3724517822266	934.6699829101564	-2238.522705078125	248.7665710449219	986.3599243164062	-218.1465911865234	538.5029907226562	1128.697387695312	-1185.667846679688	484.570068359375	1152.107421875	-1124.488891601562	497.3111267089844	1150.687622070312	-1260.406127929688	302.69873046875	1017.564147949219	-1197.657958984375	177.3997497558594	905.3579101562501	-1208.434326171875	156.9833831787109	883.9891967773439	-1229.705200195312	146.0000762939453	878.8189086914064	-1180.880249023438	116.9318161010742	832.4114990234376	-1218.2373046875	88.08351898193359	785.2390747070314	-1218.386596679688	53.0317268371582	780.1537475585939	-1234.073608398438	49.58321762084961	777.7111816406251	-1183.652709960938	10.92535400390625	733.1774902343751	-1214.4814453125	-54.47744369506836	637.1147460937501	-1239.520874023438	-55.35554885864258	635.0292968750001	-1188.01416015625	-72.82644653320312	577.6469116210939	-1216.026489257812	129.9562835693359	459.7767333984376	-1502.676635742188	164.0675659179688	389.461395263672	-1518.707641601562	179.2009124755859	435.9739990234376	-1531.160400390625	228.6811676025391	300.621063232422	-1607.4404296875	170.2093048095703	257.3573608398439	-1574.529296875	214.4113464355469	241.9793853759766	-1593.50830078125	112.7535552978516	70.70561218261727	-1464.730834960938	313.943115234375	49.76385879516611	-1542.791381835938	235.1589660644531	25.66332817077647	-1622.68896484375	97.96495056152344	452.6769714355469	-914.610107421875	150.9409027099609	490.9953613281251	-868.3556518554688	148.8279571533203	442.5818786621094	-879.5198364257812	190.9812316894531	316.3044128417969	-807.0426025390625	197.509765625	237.6671295166016	-805.8494873046875	164.3007507324219	265.2613525390626	-830.8802490234375	92.30156707763672	65.47267913818365	-966.98779296875	279.2397155761719	47.63019561767583	-866.2686767578125	188.7947845458984	37.06694793701177	-797.1704711914062	411.7666015625	851.2382812500001	-1202.51123046875	363.4219360351562	712.1254882812501	-1200.01611328125	344.7020874023438	964.2879638671876	-1370.167358398438	218.8169097900391	863.8508911132814	-1462.995849609375	164.1447601318359	828.5217285156251	-1453.038330078125	193.6075134277344	809.9829101562501	-1490.069091796875	158.9425048828125	746.0446166992189	-1559.2333984375	229.8784942626953	731.9871826171876	-1592.6640625	206.7547302246094	776.0505981445314	-1583.881103515625	273.4630737304688	848.2782592773439	-1622.478271484375	286.4378051757812	874.8045043945314	-1549.236572265625	350.7862243652344	958.1309814453126	-1038.019653320312	223.5220031738281	864.7048950195314	-952.5562744140625	190.6493682861328	814.892822265625	-923.737548828125	169.9592742919922	830.3706665039064	-969.4281005859375	174.6248016357422	748.3175048828125	-841.0398559570312	187.8658905029297	826.4974975585938	-830.471923828125	218.3924713134766	787.0645141601562	-819.409423828125	263.258056640625	867.9977416992188	-800.0617065429688	292.79150390625	893.848388671875	-869.93994140625	
364	1.815	253.3871612548828	940.0838012695314	-2238.4384765625	248.3661499023438	991.67431640625	-218.0574798583984	538.1679077148438	1134.279663085938	-1185.642822265625	484.2132263183594	1157.67919921875	-1124.474243164062	496.9742126464844	1156.235229492188	-1260.380126953125	302.4353942871094	1022.960876464844	-1197.616943359375	177.2541809082031	910.5270385742189	-1208.37255859375	156.8468933105469	889.1114501953126	-1229.634033203125	145.8448638916016	883.9324951171876	-1180.83251953125	116.8963623046875	837.4550781250001	-1218.170043945312	87.95592498779297	790.0659179687501	-1218.35205078125	52.9353141784668	784.9084472656251	-1234.046508789062	49.47330474853516	782.5135498046876	-1183.626831054688	10.84598350524902	737.9591674804689	-1214.376708984375	-54.17918395996094	642.2651977539064	-1239.410034179688	-55.04461288452148	640.1607666015626	-1187.898559570312	-72.66631317138672	582.8309326171876	-1215.934204101562	129.3349609375	462.8010864257814	-1502.447143554688	162.7592315673828	392.097869873047	-1518.079345703125	178.3234100341797	438.3813476562501	-1530.827392578125	227.9391937255859	300.9070129394532	-1607.293579101562	169.5840606689453	257.4358520507814	-1574.443725585938	213.8594512939453	242.2076263427735	-1593.390258789062	112.6829833984375	70.68651580810555	-1464.798950195312	313.8844909667969	49.79563522338876	-1542.861938476562	235.1465454101562	25.62003517150889	-1622.718017578125	97.31348419189453	455.7288513183594	-914.746826171875	150.5379180908203	493.2740478515626	-868.165771484375	148.0558624267578	444.9664611816407	-879.6969604492188	190.1650238037109	316.5484619140626	-807.138671875	196.9377136230469	237.9329223632813	-805.9302978515625	163.6245269775391	265.4163208007813	-830.9441528320312	92.21752166748047	65.43722534179693	-966.911376953125	279.1862487792969	47.63500595092778	-866.2380981445312	188.7528991699219	37.02626800537114	-797.1280517578125	411.6869506835938	856.7341308593751	-1202.457275390625	363.4675598144531	717.6057128906251	-1199.953979492188	344.4867553710938	969.6756591796876	-1370.125122070312	218.5386199951172	869.2556762695314	-1462.885375976562	163.9103240966797	833.9236450195314	-1452.86767578125	193.2631072998047	815.4070434570314	-1489.969360351562	158.7074584960938	751.4409179687501	-1559.134521484375	229.6564331054688	737.3676757812501	-1592.538818359375	206.5286254882812	781.4365844726564	-1583.77734375	273.2532348632812	853.6492309570314	-1622.378784179688	286.2366943359375	880.1669311523439	-1549.132080078125	350.5664367675781	963.5637207031251	-1037.95263671875	223.2999114990234	870.0695190429689	-952.575439453125	190.4307250976562	820.2535400390625	-923.7745971679688	169.7678985595703	835.7044677734376	-969.4835815429688	174.3815155029297	753.6588745117188	-841.0607299804688	187.6097717285156	831.84130859375	-830.47119140625	218.1329803466797	792.410888671875	-819.4034423828125	262.9748229980469	873.3466796875	-800.0087890625	292.5167846679688	899.225830078125	-869.8759155273438	
365	1.82	253.3853607177734	945.5470581054689	-2238.3544921875	247.9533233642578	997.0300903320312	-217.9690704345703	537.8226318359375	1139.914916992188	-1185.628662109375	483.8468627929688	1163.308227539062	-1124.471923828125	496.6254272460938	1161.832885742188	-1260.36572265625	302.1562194824219	1028.409057617188	-1197.576782226562	177.0966796875	915.7406005859376	-1208.307373046875	156.6997222900391	894.2758789062501	-1229.557983398438	145.6802062988281	889.0874023437501	-1180.783325195312	116.8528137207031	842.5380859375001	-1218.096313476562	87.82685089111328	794.9335937500001	-1218.306274414062	52.83946228027344	789.6959228515626	-1234.007202148438	49.36111068725586	787.3478393554689	-1183.587524414062	10.7686882019043	742.7677001953126	-1214.261108398438	-53.87490844726562	647.3925170898439	-1239.294067382812	-54.72684860229492	645.2684326171876	-1187.778930664062	-72.48882293701172	587.9884033203126	-1215.837768554688	128.7301330566406	465.8313293457032	-1502.197143554688	161.4730224609375	394.7493286132814	-1517.425659179688	177.4543762207031	440.8025512695314	-1530.472412109375	227.1956787109375	301.1925354003907	-1607.136596679688	168.9542694091797	257.513885498047	-1574.353637695312	213.3046722412109	242.4359741210938	-1593.265502929688	112.611930847168	70.66663360595712	-1464.8662109375	313.8262634277344	49.82907104492197	-1542.93115234375	235.1341400146484	25.57713508605967	-1622.745971679688	96.68418121337891	458.7789916992188	-914.8963623046875	150.1428833007812	495.5486450195313	-867.9874267578125	147.2981719970703	447.3534851074219	-879.8892211914062	189.3561401367188	316.7844848632813	-807.2337036132812	196.3804473876953	238.1919860839844	-806.0210571289062	162.9547882080078	265.5626831054688	-831.0065307617188	92.13109588623047	65.40293121337896	-966.8364868164062	279.1336975097656	47.64142227172857	-866.2091674804688	188.71142578125	36.98720550537114	-797.0872802734375	411.6009826660156	862.2832641601564	-1202.4013671875	363.5049133300781	723.1195678710939	-1199.885620117188	344.2569580078125	975.1141357421876	-1370.081909179688	218.2397918701172	874.7125244140626	-1462.773193359375	163.6627807617188	839.3753051757814	-1452.689575195312	192.9158630371094	820.8779296875001	-1489.862060546875	158.4557952880859	756.8875122070314	-1559.02880859375	229.4188995361328	742.7976684570314	-1592.406860351562	206.2855072021484	786.8721313476564	-1583.6689453125	273.0288696289062	859.0675048828126	-1622.277221679688	286.0227661132812	885.5775756835939	-1549.027465820312	350.3333740234375	969.0540771484376	-1037.887084960938	223.0727996826172	875.4827880859376	-952.591796875	190.2081909179688	825.659423828125	-923.8092041015625	169.5732421875	841.0847778320314	-969.5371704101562	174.1401519775391	759.0438842773438	-841.0816650390625	187.3495941162109	837.2293090820312	-830.4696044921875	217.873779296875	797.8026733398438	-819.3976440429688	262.6861572265625	878.7440185546875	-799.9562377929688	292.2362060546875	904.6546630859375	-869.8116455078125	
